<?xml version="1.0" encoding="utf-8"?>
<!-- Generator: Adobe Illustrator 19.2.1, SVG Export Plug-In . SVG Version: 6.00 Build 0)  -->
<svg version="1.1" id="Layer_1" xmlns="http://www.w3.org/2000/svg" xmlns:xlink="http://www.w3.org/1999/xlink" x="0px" y="0px"
	 viewBox="0 0 119.4 157.4" style="enable-background:new 0 0 119.4 157.4;" xml:space="preserve">
<style type="text/css">
	.st0{fill:#CF0A2C;}
	.st1{fill:#231F20;}
</style>
<path d="M46.5,58.6c0,0,4-3.8,4-3.9c-0.1,0.1-9.6-8.7-10.6-9.4c-8-5.8-19.6-6.9-27.5-0.2c-8.3,6.9-8,21.3-0.5,28.7
	c5.5,5.4,15.1,5.8,23.2,3.4c-1.4-0.7-4.9-4-4.9-4c-4.6,0.3-6.8,0.3-8.6-0.3c-3.3-1.1-6.3-3.4-7.9-6.5C6.8,53.5,23,41.6,34.5,48.5
	C35.9,49.4,46.5,58.6,46.5,58.6z"/>
<path d="M68,68l-4.1-3.8l19.2-17.4c0,0,12.6-11.6,27.1-3.4c14.1,8,10,30.3-4.3,34.8c-9.5,3-15.4-0.9-15.4-0.9l4.7-3.9
	c0,0,11.8,4.3,17.1-8.9s-6.4-18.9-14.3-18.2C89.9,47,75.8,60.9,68,68z"/>
<path d="M81.3,45.7l5.6-4.2c0,0-10.1-6.1-22.3,3.1l3.9,4.2C68.4,48.8,74.9,44,81.3,45.7z"/>
<path class="st0" d="M89,52.4l5.2-2.7c0,0,9.3,11.9-2.5,23.5s-25.2,4.1-29,1c-3.7-3.1-10.1-8.4-10.1-8.4l4.6-4.5l9.5,8.8
	c0,0,6.7,6.7,16.7,2.3C93.1,68.2,92.7,57,89,52.4z"/>
<path d="M74,65.2l4-3.9l7.2,6.6c0,0-1.3,2.4-4.6,3.3L74,65.2z"/>
<path d="M44.5,70.6c0,0-2.5-0.3-4.3-3.1L56.9,52l3.9,3.5L44.5,70.6z"/>
<path class="st0" d="M55.5,70.8l4,4.1c0,0-9.9,8.5-24-0.2c-12.7-7.9-8.2-23.1-4.8-24.8l4.5,2.7c0,0-6.3,11.6,4.8,18.8
	C48.5,77,55.5,70.8,55.5,70.8z"/>
<path d="M39.8,42.1l5.1,4c0,0,6.9-1.2,12.5,3.5s9.4,8.6,9.4,8.6l4-3.6l-8.4-8.5C62.4,46.1,54,36.5,39.8,42.1z"/>
<g>
	<polygon class="st0" points="63.5,13.6 77.7,36.6 84.3,36.1 63.5,0 42.6,36.7 49.8,36.9 	"/>
	<polygon class="st1" points="119.3,105.5 107.9,85.8 98.5,83.5 106.1,97.5 18.8,98.7 26.8,83.8 18.1,85.5 6.5,105.5 	"/>
</g>
<g>
	<path d="M6.5,111.9c1.4,0,2.6,0.1,5.1,0.1c2.3,0,4.1-0.1,5.3-0.1c0.1,0.2,0,1-0.1,1.2c-0.9,0.1-1.6,0.2-2,0.3
		c-0.9,0.3-1.1,0.9-1.3,1.6c-0.4,2.1-2.4,15-2.6,16.5c-0.1,0.7,0.3,1.1,0.6,1.1c0.8,0.1,4,0.2,5.4,0.2c1.6,0,2.9-1.3,5.2-5.4
		c0.2-0.1,1.1,0.3,1.1,0.6c-0.3,1.1-1.6,4.5-2.7,5.9c-0.3,0.4-0.9,0.7-1.7,0.7c-2.8,0-8.2-0.1-10.7-0.1c-2.9,0-4.9,0.1-5.6,0.1
		c-0.1-0.3,0-1.1,0.1-1.2c1.1-0.1,1.7-0.2,2.4-0.4c0.8-0.2,1.1-0.7,1.3-1.5c0.6-2.9,2.4-14,2.7-16.4c0.1-1,0-1.4-0.9-1.6
		c-0.4-0.1-1.2-0.2-1.9-0.3C6.2,112.9,6.3,112.1,6.5,111.9z"/>
	<path d="M25.5,125.9c0-3.5,1.2-7.8,4.4-10.6c2.3-2.5,5.5-3.9,8.8-3.9c5.9,0,8.8,3.9,8.9,9.3c0,3.5-1,7.2-3.2,9.8
		c-2.6,3.2-6.2,4.7-9.9,4.7C28.4,135.1,25.5,131.4,25.5,125.9z M38.6,132.4c2.9-2.4,4.2-7.7,4.2-12.4c0-4.4-1.6-7.2-5-7.2
		c-5,0-7.5,7.6-7.5,13.6c0,4.6,1.8,7.2,5.1,7.2C36.6,133.6,37.7,133.2,38.6,132.4z"/>
	<path d="M49.8,111.9c1.1,0,3.3,0.1,5.1,0.1c2.4,0,4.2-0.1,4.9-0.1c0.1,0.1,0.1,1.1-0.1,1.3c-0.7,0.1-1.4,0.2-1.7,0.4
		c-0.6,0.2-0.7,0.6-0.6,1.1c0.3,2.5,1.8,12.3,2.3,14.9c0,0,0.1,0,0.2,0c1.3-2.2,6.4-11.4,7.5-13.9c0.5-1.1,0.6-1.9-0.4-2.1
		c-0.6-0.1-1.2-0.3-2-0.4c-0.1-0.3,0-1,0.2-1.2c0.6,0,2.4,0.1,4.6,0.1c2.3,0,3.4-0.1,4.2-0.1c0.1,0.2,0,1.1-0.1,1.2
		c-0.8,0.1-1.4,0.3-1.9,0.5c-1.2,0.4-1.6,1.1-2.9,3.2c-1.6,2.6-4.7,8.3-7.2,12.7c-1.2,2.1-2.3,4.1-2.8,5.2c-0.2,0-0.8,0-1.5,0
		c-0.7,0-1.2,0-1.4,0l-0.7-4.8c-0.7-5-1.5-10.1-2-13.1c-0.4-2.7-0.8-3.1-1.9-3.4c-0.5-0.1-1-0.2-1.6-0.3
		C49.4,112.9,49.6,112,49.8,111.9z"/>
	<path d="M72.6,133c0.7-0.2,1.1-0.7,1.4-1.9c0.6-2.5,2.4-13.7,2.6-15.9c0.1-1.1,0-1.5-0.8-1.7c-0.4-0.1-1.3-0.3-2-0.3
		c-0.1-0.2,0.1-1.1,0.2-1.2c1.1,0,3.5,0.1,5.3,0.1h7.2c1.4,0,3.7,0,4.4-0.2c0,0,0.1,0.2,0.1,0.3c-0.4,1.1-1,3.4-1.3,5.4
		c-0.2,0.2-1.2,0.2-1.3,0c0-1-0.1-2.1-0.3-2.7c-0.2-0.8-0.6-1.1-1.5-1.1c-1-0.1-4.1-0.1-5.1,0c-0.2,0-0.4,0.3-0.4,0.5
		c-0.4,1.9-0.9,5.2-1.3,7.8c0,0.1,0.1,0.2,0.2,0.2c1.4,0,3.3,0,4.5,0c0.8,0,1.3-0.4,1.6-1.2c0.2-0.4,0.4-0.9,0.6-1.5
		c0.1-0.1,1.2-0.1,1.3,0c-0.1,0.7-0.6,2.5-0.7,3.6c-0.2,1.3-0.4,2.7-0.6,3.8c-0.1,0.1-1.1,0.1-1.3,0c0-0.7-0.1-1.4-0.1-1.8
		c-0.1-0.7-0.4-1-1.1-1.1c-0.8-0.1-3.3-0.1-4.5-0.1c-0.1,0-0.3,0.1-0.3,0.3c-0.4,2.3-0.8,5.5-1.1,7.2c-0.1,0.7,0.2,1.1,0.6,1.2
		c0.8,0.2,3.5,0.2,5.4,0.2c1.1,0,2-0.3,2.8-1.1c0.8-0.8,1.4-1.7,2.3-3.2c0.2-0.1,1.1,0.3,1.2,0.5c-0.3,1.1-1.3,3.7-2.1,4.9
		c-0.3,0.4-0.6,0.5-1.4,0.6c-3,0-5.5-0.1-11.1-0.1c-2.6,0-4.6,0.1-5.8,0.1c-0.1-0.1-0.1-1.1,0.1-1.2C71.3,133.2,72,133.1,72.6,133z"
		/>
	<path d="M103.7,112.5c1.1,0,2.5,0.1,3.6,0.1c0.4,0,0.8,0,1,0c0.1,0.3,0.3,0.7,0.7,1.3c1.3,2.3,4.6,7.9,5.6,9.5c0,0,0.1,0,0.1,0
		c0.5-2.6,1.1-7.1,1.3-8.5c0-0.7-0.1-1.1-0.8-1.3c-0.4-0.1-0.9-0.2-1.5-0.3c-0.1-0.1,0-0.7,0.1-0.7c0.6,0,1.5,0.1,3.1,0.1
		c1.4,0,2.1-0.1,2.6-0.1c0.1,0.1,0,0.7-0.1,0.7c-0.4,0.1-0.6,0.1-0.9,0.2c-0.7,0.2-1,0.5-1.1,1.4c-0.4,2-1.1,5.7-1.6,8.9
		c-0.2,1-0.3,2.4-0.4,3.2c-0.2,0-0.5,0-1.1,0c-0.5,0-0.8,0-1,0c-1.1-2.2-5.1-9.3-6.4-11.3c0,0-0.1,0-0.1,0c-0.4,2.1-1.2,7.6-1.4,8.7
		c-0.1,1,0.1,1.3,0.8,1.5c0.4,0.1,0.8,0.2,1.4,0.3c0.1,0.1,0,0.6-0.1,0.8c-0.8,0-1.7-0.1-2.9-0.1c-1,0-2.1,0.1-2.9,0.1
		c0-0.2,0-0.7,0.1-0.7c0.5-0.1,0.9-0.1,1.3-0.3c0.7-0.2,0.9-0.6,1.1-1.4c0.3-1.3,1.2-6.1,1.8-9.5c0-0.4-0.1-1.2-0.6-1.4
		c-0.4-0.2-0.9-0.3-1.6-0.4C103.5,113,103.6,112.6,103.7,112.5z"/>
	<path d="M2.7,139.9c0.5,0,2.4,0.1,3.8,0.1c2.3,0,3.4-0.1,4.3-0.1c3.2,0,4.7,1.7,4.7,3.9c0,2.5-1.8,4-4,4.7c-0.1,0-0.1,0.1-0.1,0.2
		c0.6,1.4,2.3,4.5,3.4,5.9c0.7,1,1.2,1.2,2.6,1.4c0.1,0.1,0,0.8-0.2,0.9c-1.4,0.1-4,0-4.9-0.5c-0.6-0.3-1-0.9-1.2-1.3
		c-0.8-1.4-1.9-3.6-2.6-5.3c-0.2-0.4-0.5-0.6-0.8-0.6c-0.2,0-0.6,0-0.8,0c-0.1,0-0.2,0.1-0.2,0.2c-0.3,1.7-0.5,3.5-0.7,4.9
		c-0.1,0.9,0.2,1.2,0.7,1.4c0.4,0.1,0.9,0.2,1.5,0.3c0.1,0.1,0,0.8-0.2,0.9c-0.9,0-2.2-0.1-4.1-0.1c-2.1,0-3.3,0.1-4,0.1
		c-0.1-0.2,0-0.8,0.1-0.9c0.4,0,1.1-0.1,1.5-0.2c0.7-0.1,1-0.4,1.2-1.4c0.6-2.8,1.8-10.5,2-12.2c0.1-0.7-0.1-1.1-0.6-1.2
		c-0.3-0.1-1-0.3-1.6-0.3C2.5,140.7,2.7,140,2.7,139.9z M9.1,141.1c-0.2,0-0.6,0-0.7,0.1c-0.1,0.1-0.3,0.2-0.3,0.4
		c-0.3,1.6-0.8,4.6-1.1,6.6c0,0.1,0.1,0.2,0.1,0.2c1.2,0,2.2-0.2,2.9-0.4c1.3-0.6,2.1-1.6,2.1-3.6C12.2,142.3,11.1,141.1,9.1,141.1z
		"/>
	<path d="M18.7,155.8c0.6-0.1,0.8-0.5,1-1.4c0.4-1.9,1.8-10.3,1.9-12c0.1-0.8,0-1.1-0.6-1.3c-0.3-0.1-1-0.2-1.5-0.3
		c-0.1-0.2,0.1-0.8,0.2-0.9c0.8,0,2.6,0.1,4,0.1h5.4c1.1,0,2.8,0,3.3-0.1c0,0,0.1,0.1,0.1,0.2c-0.3,0.8-0.7,2.6-1,4.1
		c-0.1,0.1-0.9,0.1-1,0c0-0.7-0.1-1.6-0.2-2c-0.1-0.6-0.5-0.8-1.1-0.9c-0.8-0.1-3.1-0.1-3.8,0c-0.2,0-0.3,0.3-0.3,0.4
		c-0.3,1.4-0.7,3.9-1,5.9c0,0.1,0.1,0.2,0.1,0.2c1.1,0,2.5,0,3.4,0c0.6,0,0.9-0.3,1.2-0.9c0.1-0.3,0.3-0.7,0.5-1.1
		c0.1-0.1,0.9-0.1,1,0c-0.1,0.5-0.4,1.9-0.6,2.7c-0.2,0.9-0.3,2.1-0.4,2.9c-0.1,0.1-0.8,0.1-1,0c0-0.5-0.1-1-0.1-1.4
		c-0.1-0.5-0.3-0.8-0.8-0.8c-0.6-0.1-2.5-0.1-3.4-0.1c-0.1,0-0.2,0.1-0.2,0.2c-0.3,1.7-0.6,4.1-0.8,5.4c-0.1,0.5,0.2,0.8,0.4,0.9
		c0.6,0.1,2.6,0.1,4.1,0.1c0.9,0,1.5-0.2,2.1-0.9c0.6-0.6,1.1-1.3,1.7-2.4c0.2-0.1,0.8,0.2,0.9,0.4c-0.2,0.9-1,2.8-1.6,3.7
		c-0.2,0.3-0.4,0.4-1.1,0.4c-2.2,0-4.2-0.1-8.4-0.1c-2,0-3.5,0.1-4.4,0.1c-0.1-0.1-0.1-0.8,0.1-0.9C17.8,156,18.3,155.9,18.7,155.8z
		"/>
	<path d="M34,139.9c0.9,0,2.5,0.1,3.8,0.1c1.8,0,3.2-0.1,3.7-0.1c0.1,0.1,0.1,0.8-0.1,1c-0.5,0.1-1,0.2-1.3,0.3
		c-0.4,0.1-0.5,0.5-0.5,0.9c0.2,1.9,1.4,9.3,1.7,11.2c0,0,0.1,0,0.1,0c1-1.6,4.8-8.6,5.7-10.5c0.4-0.8,0.4-1.4-0.3-1.6
		c-0.4-0.1-0.9-0.2-1.5-0.3c-0.1-0.2,0-0.8,0.1-0.9c0.4,0,1.8,0.1,3.4,0.1c1.8,0,2.6-0.1,3.1-0.1c0.1,0.1,0,0.8-0.1,0.9
		c-0.6,0.1-1.1,0.2-1.4,0.4c-0.9,0.3-1.2,0.8-2.2,2.4c-1.2,2-3.6,6.3-5.4,9.6c-0.9,1.6-1.7,3.1-2.1,3.9c-0.2,0-0.6,0-1.1,0
		c-0.5,0-0.9,0-1.1,0l-0.5-3.6c-0.6-3.8-1.1-7.6-1.5-9.8c-0.3-2.1-0.6-2.4-1.4-2.6c-0.4-0.1-0.7-0.1-1.2-0.2
		C33.8,140.7,33.9,140,34,139.9z"/>
	<path d="M51.2,155.8c0.6-0.1,0.8-0.5,1-1.4c0.4-1.9,1.8-10.3,1.9-12c0.1-0.8,0-1.1-0.6-1.3c-0.3-0.1-1-0.2-1.5-0.3
		c-0.1-0.2,0.1-0.8,0.2-0.9c0.8,0,2.6,0.1,4,0.1h5.4c1.1,0,2.8,0,3.3-0.1c0,0,0.1,0.1,0.1,0.2c-0.3,0.8-0.7,2.6-1,4.1
		c-0.1,0.1-0.9,0.1-1,0c0-0.7-0.1-1.6-0.2-2c-0.1-0.6-0.5-0.8-1.1-0.9c-0.8-0.1-3.1-0.1-3.8,0c-0.2,0-0.3,0.3-0.3,0.4
		c-0.3,1.4-0.7,3.9-1,5.9c0,0.1,0.1,0.2,0.1,0.2c1.1,0,2.5,0,3.4,0c0.6,0,0.9-0.3,1.2-0.9c0.1-0.3,0.3-0.7,0.5-1.1
		c0.1-0.1,0.9-0.1,1,0c-0.1,0.5-0.4,1.9-0.6,2.7c-0.2,0.9-0.3,2.1-0.4,2.9c-0.1,0.1-0.8,0.1-1,0c0-0.5-0.1-1-0.1-1.4
		c-0.1-0.5-0.3-0.8-0.8-0.8c-0.6-0.1-2.5-0.1-3.4-0.1c-0.1,0-0.2,0.1-0.2,0.2c-0.3,1.7-0.6,4.1-0.8,5.4c-0.1,0.5,0.2,0.8,0.4,0.9
		c0.6,0.1,2.6,0.1,4.1,0.1c0.9,0,1.5-0.2,2.1-0.9c0.6-0.6,1.1-1.3,1.7-2.4c0.2-0.1,0.8,0.2,0.9,0.4c-0.2,0.9-1,2.8-1.6,3.7
		c-0.2,0.3-0.4,0.4-1.1,0.4c-2.2,0-4.2-0.1-8.4-0.1c-2,0-3.5,0.1-4.4,0.1c-0.1-0.1-0.1-0.8,0.1-0.9C50.2,156,50.7,155.9,51.2,155.8z
		"/>
	<path d="M67.7,139.9c1.3,0,3,0.1,4.3,0.1c0.4,0,0.9,0,1.2,0c0.1,0.4,0.3,0.8,0.8,1.6c1.6,2.8,5.4,9.3,6.6,11.3c0,0,0.1,0,0.1,0
		c0.6-3.1,1.4-8.4,1.5-10.1c0.1-0.8-0.1-1.3-1-1.5c-0.5-0.1-1.1-0.2-1.8-0.3c-0.1-0.1,0-0.8,0.1-0.9c0.7,0,1.8,0.1,3.7,0.1
		c1.6,0,2.5-0.1,3.1-0.1c0.1,0.1,0,0.8-0.1,0.9c-0.4,0.1-0.8,0.1-1.1,0.3c-0.8,0.2-1.2,0.6-1.4,1.6c-0.5,2.3-1.3,6.8-1.9,10.6
		c-0.2,1.2-0.4,2.8-0.5,3.8c-0.2,0-0.6-0.1-1.3-0.1c-0.6,0-1,0-1.2,0.1c-1.4-2.6-6.1-11-7.6-13.5c-0.1,0-0.1,0-0.1,0.1
		c-0.4,2.5-1.4,9.1-1.6,10.4c-0.1,1.1,0.1,1.5,0.9,1.8c0.4,0.1,0.9,0.2,1.6,0.3c0.1,0.1,0,0.8-0.1,0.9c-0.9,0-2.1-0.1-3.5-0.1
		c-1.2,0-2.5,0.1-3.5,0.1c-0.1-0.2,0-0.8,0.1-0.9c0.6-0.1,1.1-0.2,1.6-0.3c0.8-0.2,1.1-0.7,1.3-1.6c0.4-1.5,1.4-7.3,2.1-11.3
		c0.1-0.5-0.1-1.4-0.7-1.6c-0.4-0.2-1-0.3-1.9-0.4C67.5,140.6,67.6,140,67.7,139.9z"/>
	<path d="M100.9,156.3c-1,0.3-3.7,1.1-6.1,1.1c-5.5,0-8.1-2.6-8.1-7.5c0-4.2,2.4-7.9,6.1-9.5c1.6-0.6,3-0.9,5.2-0.9
		c1,0,2.3,0.2,3.1,0.3c0.9,0.2,1.6,0.3,2.1,0.3c-0.4,1.2-0.9,3.1-1.1,4.5c-0.1,0.2-0.9,0.1-1,0c0-2.1-0.3-2.9-0.9-3.3
		c-0.8-0.6-1.8-0.8-3.2-0.8c-3.6,0-6.6,3.9-6.6,9.4c0,3.7,1.8,6.3,5.1,6.3c0.4,0,1-0.1,1.2-0.3c0.3-0.2,0.5-0.6,0.5-0.8
		c0.2-0.8,0.4-2.3,0.6-3.2c0.1-0.9,0.1-1.4-0.7-1.6c-0.4-0.1-1-0.2-1.7-0.3c-0.1-0.2,0.1-0.8,0.2-0.9c0.7,0,1.7,0.1,4.1,0.1
		c2.4,0,3-0.1,3.6-0.1c0.1,0.1-0.1,0.8-0.2,0.9c-0.3,0.1-0.6,0.1-0.9,0.2c-0.6,0.2-0.8,0.4-1,1.6c-0.1,0.6-0.4,2.3-0.5,2.9
		c0,0.4,0.1,0.6,0.4,0.8C101.1,155.7,101,156.2,100.9,156.3z"/>
	<path d="M105.4,155.8c0.6-0.1,0.8-0.5,1-1.4c0.4-1.9,1.8-10.3,1.9-12c0.1-0.8,0-1.1-0.6-1.3c-0.3-0.1-1-0.2-1.5-0.3
		c-0.1-0.2,0.1-0.8,0.2-0.9c0.8,0,2.6,0.1,4,0.1h5.4c1.1,0,2.8,0,3.3-0.1c0,0,0.1,0.1,0.1,0.2c-0.3,0.8-0.7,2.6-1,4.1
		c-0.1,0.1-0.9,0.1-1,0c0-0.7-0.1-1.6-0.2-2c-0.1-0.6-0.5-0.8-1.1-0.9c-0.8-0.1-3.1-0.1-3.8,0c-0.2,0-0.3,0.3-0.3,0.4
		c-0.3,1.4-0.7,3.9-1,5.9c0,0.1,0.1,0.2,0.1,0.2c1.1,0,2.5,0,3.4,0c0.6,0,0.9-0.3,1.2-0.9c0.1-0.3,0.3-0.7,0.5-1.1
		c0.1-0.1,0.9-0.1,1,0c-0.1,0.5-0.4,1.9-0.6,2.7c-0.2,0.9-0.3,2.1-0.4,2.9c-0.1,0.1-0.8,0.1-1,0c0-0.5-0.1-1-0.1-1.4
		c-0.1-0.5-0.3-0.8-0.8-0.8c-0.6-0.1-2.5-0.1-3.4-0.1c-0.1,0-0.2,0.1-0.2,0.2c-0.3,1.7-0.6,4.1-0.8,5.4c-0.1,0.5,0.2,0.8,0.4,0.9
		c0.6,0.1,2.6,0.1,4.1,0.1c0.9,0,1.5-0.2,2.1-0.9c0.6-0.6,1.1-1.3,1.7-2.4c0.2-0.1,0.8,0.2,0.9,0.4c-0.2,0.9-1,2.8-1.6,3.7
		c-0.2,0.3-0.4,0.4-1.1,0.4c-2.2,0-4.2-0.1-8.4-0.1c-2,0-3.5,0.1-4.4,0.1c-0.1-0.1-0.1-0.8,0.1-0.9C104.4,156,105,155.9,105.4,155.8
		z"/>
</g>
</svg>
