<?xml version="1.0" encoding="utf-8"?>
<!-- Generator: Adobe Illustrator 19.2.1, SVG Export Plug-In . SVG Version: 6.00 Build 0)  -->
<svg version="1.1" id="Layer_1" xmlns="http://www.w3.org/2000/svg" xmlns:xlink="http://www.w3.org/1999/xlink" x="0px" y="0px"
	 viewBox="0 0 378.9 100.9" style="enable-background:new 0 0 378.9 100.9;" xml:space="preserve">
<style type="text/css">
	.st0{fill:#CF0A2C;}
	.st1{fill:#231F20;}
</style>
<path d="M309.4,56c0,0,3.8-3.7,3.8-3.7c-0.1,0.1-9.2-8.3-10.1-9c-7.7-5.6-18.7-6.6-26.3-0.2c-7.9,6.6-7.7,20.4-0.5,27.5
	c5.3,5.2,14.4,5.5,22.1,3.2c-1.4-0.6-4.7-3.8-4.7-3.8c-4.4,0.3-6.5,0.3-8.2-0.3c-3.2-1-6-3.2-7.6-6.2c-6.5-12.4,9-23.8,20-17.1
	C299.2,47.2,309.4,56,309.4,56z"/>
<path d="M329.9,65l-3.9-3.6l18.4-16.6c0,0,12.1-11.1,25.9-3.3c13.5,7.6,9.5,28.9-4.2,33.2c-9.1,2.9-14.8-0.8-14.8-0.8l4.5-3.8
	c0,0,11.3,4.1,16.3-8.5s-6.1-18-13.7-17.4C350.9,44.9,337.4,58.2,329.9,65z"/>
<path d="M342.6,43.7l5.4-4.1c0,0-9.7-5.8-21.3,3l3.7,4C330.4,46.7,336.5,42.1,342.6,43.7z"/>
<path class="st0" d="M350,50l5-2.6c0,0,8.9,11.4-2.4,22.5c-11.3,11.1-24.1,3.9-27.7,0.9c-3.6-3-9.6-8-9.6-8l4.4-4.3l9.1,8.4
	c0,0,6.4,6.4,16,2.2C353.9,65.2,353.5,54.5,350,50z"/>
<path d="M335.7,62.3l3.9-3.7l6.8,6.3c0,0-1.3,2.3-4.4,3.1L335.7,62.3z"/>
<path d="M307.5,67.5c0,0-2.4-0.3-4.1-2.9l16-14.9l3.8,3.3L307.5,67.5z"/>
<path class="st0" d="M318,67.7l3.8,3.9c0,0-9.5,8.2-22.9-0.2c-12.1-7.5-7.8-22.1-4.6-23.7l4.3,2.6c0,0-6,11.1,4.6,18
	C311.3,73.6,318,67.7,318,67.7z"/>
<path d="M303,40.2l4.9,3.9c0,0,6.6-1.2,12,3.3s9,8.2,9,8.2l3.8-3.5l-8-8.1C324.5,44,316.6,34.9,303,40.2z"/>
<g>
	<polygon class="st0" points="325.6,13 339.2,34.9 345.5,34.5 325.6,0 305.6,35.1 312.6,35.3 	"/>
	<polygon class="st1" points="378.9,100.9 368,82 359.1,79.8 366.3,93.2 282.9,94.3 290.5,80.1 282.2,81.7 271.2,100.9 	"/>
</g>
<g>
	<path d="M13.4,6.9c2.8,0,5.4,0.2,10.6,0.2c4.7,0,8.6-0.2,10.9-0.3c0.2,0.4,0,2.1-0.3,2.4c-1.8,0.2-3.2,0.5-4.1,0.7
		c-1.8,0.5-2.2,1.8-2.6,3.4c-0.8,4.4-5,31-5.4,34.2c-0.2,1.4,0.7,2.2,1.1,2.3c1.6,0.3,8.3,0.5,11.2,0.4c3.2-0.1,6-2.7,10.8-11.2
		c0.5-0.2,2.2,0.7,2.4,1.1c-0.6,2.3-3.4,9.4-5.5,12.2c-0.6,0.8-1.8,1.5-3.6,1.5c-5.9,0-16.9-0.3-22.2-0.3c-6,0-10.1,0.3-11.5,0.3
		c-0.2-0.5-0.1-2.3,0.3-2.5c2.4-0.3,3.4-0.5,4.9-0.8c1.6-0.5,2.3-1.4,2.8-3.1c1.3-6,5-29,5.5-33.9c0.2-2.1,0-2.9-1.8-3.4
		c-0.8-0.3-2.5-0.5-4-0.7C12.7,9,13.1,7.1,13.4,6.9z"/>
	<path d="M52.9,35.8c0-7.3,2.5-16,9-22c4.8-5.1,11.3-8,18.3-8c12.2,0,18.2,8.1,18.3,19.2c0.1,7.3-2.1,14.9-6.6,20.3
		c-5.4,6.6-12.8,9.7-20.4,9.7C58.8,54.9,52.9,47.1,52.9,35.8z M79.9,49.3c6-5,8.7-16,8.7-25.6c-0.1-9-3.2-15-10.3-15
		c-10.3,0-15.6,15.8-15.6,28c0,9.5,3.7,15,10.5,15C75.7,51.8,78.1,50.8,79.9,49.3z"/>
	<path d="M103,6.9c2.4,0,6.9,0.2,10.5,0.2c5,0,8.8-0.2,10.2-0.3c0.2,0.3,0.2,2.2-0.2,2.7c-1.4,0.2-2.8,0.5-3.6,0.8
		c-1.1,0.4-1.4,1.3-1.3,2.4c0.6,5.2,3.7,25.4,4.7,30.8c0.1,0,0.3,0.1,0.4,0c2.8-4.5,13.2-23.7,15.6-28.8c1.1-2.3,1.1-3.9-0.9-4.4
		c-1.2-0.3-2.4-0.5-4.2-0.8c-0.2-0.5,0-2.1,0.4-2.4c1.1,0,5,0.2,9.5,0.2c4.8,0,7-0.3,8.6-0.3c0.2,0.4,0.1,2.2-0.3,2.5
		c-1.6,0.3-2.9,0.5-4,1.1c-2.4,0.9-3.3,2.3-6,6.6c-3.4,5.4-9.8,17.3-15,26.3c-2.5,4.4-4.7,8.4-5.9,10.8c-0.5,0-1.6-0.1-3.1-0.1
		c-1.5,0-2.4,0.1-3,0.1l-1.4-9.9c-1.5-10.3-3.1-20.9-4.1-27.1c-0.9-5.7-1.7-6.5-4-7.1c-1-0.3-2-0.4-3.4-0.6
		C102.3,9,102.6,7.1,103,6.9z"/>
	<path d="M150.2,50.5c1.5-0.4,2.2-1.4,2.8-4c1.1-5.3,4.9-28.4,5.3-32.9c0.2-2.2,0-3.1-1.6-3.6c-0.9-0.3-2.7-0.5-4.2-0.7
		c-0.2-0.5,0.2-2.2,0.5-2.5c2.3,0,7.2,0.3,11,0.3H179c2.9,0,7.6-0.1,9.2-0.4c0.1,0,0.2,0.4,0.2,0.5c-0.9,2.2-2,7-2.7,11.2
		c-0.4,0.4-2.4,0.4-2.8,0.1c-0.1-2-0.2-4.3-0.6-5.6c-0.4-1.7-1.3-2.2-3.1-2.4c-2.1-0.2-8.5-0.3-10.5-0.1c-0.5,0.1-0.8,0.7-0.9,1.1
		c-0.8,4-1.8,10.9-2.7,16.2c0,0.2,0.2,0.5,0.4,0.5c2.9,0,6.9,0,9.3-0.1c1.6-0.1,2.6-0.9,3.3-2.4c0.4-0.8,0.8-1.9,1.3-3.1
		c0.2-0.3,2.4-0.2,2.8,0.1c-0.3,1.4-1.1,5.1-1.5,7.5c-0.5,2.6-0.8,5.7-1.1,7.9c-0.3,0.3-2.3,0.2-2.7,0c0-1.4-0.2-2.8-0.3-3.7
		c-0.2-1.4-0.9-2.1-2.3-2.2c-1.6-0.2-6.8-0.3-9.2-0.3c-0.2,0-0.6,0.3-0.6,0.6c-0.8,4.7-1.7,11.3-2.2,15c-0.2,1.5,0.5,2.2,1.1,2.4
		c1.7,0.4,7.2,0.4,11.2,0.4c2.4,0,4.1-0.6,5.7-2.4c1.6-1.8,3-3.6,4.7-6.6c0.5-0.2,2.2,0.5,2.4,1.1c-0.6,2.4-2.7,7.7-4.4,10.2
		c-0.5,0.9-1.2,1.1-3,1.1c-6.1,0-11.5-0.2-23-0.2c-5.4,0-9.6,0.2-12.1,0.2c-0.3-0.3-0.2-2.2,0.2-2.5C147.6,51,149,50.8,150.2,50.5z"
		/>
	<path d="M214.3,8c2.2,0,5.3,0.1,7.6,0.1c0.8,0,1.6,0,2,0c0.2,0.6,0.5,1.4,1.4,2.7c2.8,4.8,9.5,16.3,11.6,19.7c0,0,0.1,0,0.1,0
		c1-5.5,2.4-14.8,2.6-17.8c0.1-1.4-0.2-2.3-1.7-2.7c-0.9-0.2-1.9-0.3-3.1-0.5c-0.1-0.2,0-1.5,0.2-1.6c1.2,0,3.1,0.1,6.4,0.1
		c2.8,0,4.4-0.1,5.4-0.1c0.1,0.2,0,1.4-0.2,1.6c-0.7,0.1-1.3,0.2-1.9,0.4c-1.4,0.4-2,1.1-2.4,2.9c-0.9,4.1-2.2,11.9-3.3,18.5
		c-0.3,2.1-0.7,4.9-0.9,6.7c-0.3,0-1-0.1-2.2-0.1c-1.1,0-1.7,0-2.1,0.1c-2.4-4.5-10.6-19.3-13.2-23.6c-0.1,0-0.1,0-0.2,0.1
		c-0.8,4.3-2.5,15.9-2.8,18.1c-0.2,2,0.2,2.7,1.6,3.1c0.7,0.2,1.7,0.4,2.9,0.5c0.2,0.1,0,1.3-0.2,1.6c-1.6,0-3.6-0.2-6.1-0.2
		c-2,0-4.4,0.2-6.1,0.2c-0.1-0.3,0-1.4,0.1-1.6c1.1-0.2,1.8-0.3,2.7-0.5c1.4-0.3,1.9-1.2,2.3-2.9c0.6-2.6,2.5-12.7,3.6-19.7
		c0.1-0.9-0.2-2.4-1.3-2.9c-0.8-0.3-1.8-0.5-3.3-0.7C214,9.2,214.2,8.2,214.3,8z"/>
	<path d="M211.5,7.9c-2.9,2.5-4.2,4.8-4.2,6.8c0,1.2,0.5,2.2,1,2.9c-0.2,0.5-3.2,2.7-4.1,2.7c-0.2,0-0.5,0-0.7-0.1
		c-0.3-0.5-0.6-1.5-0.6-2.5c0-3.6,3.8-8.4,7.1-10.4C210.2,7.4,211.3,7.7,211.5,7.9z"/>
	<path d="M5.7,64.8c1,0,5,0.2,7.9,0.2c4.7-0.1,7-0.1,9-0.1c6.6,0,9.7,3.5,9.7,8.1c0,5.1-3.8,8.2-8.3,9.8c-0.1,0.1-0.2,0.3-0.2,0.4
		c1.2,2.8,4.7,9.3,7,12.3c1.5,2.1,2.5,2.5,5.4,2.9c0.2,0.3-0.1,1.7-0.3,1.9c-3,0.1-8.3,0-10.1-1c-1.2-0.7-2-1.8-2.5-2.6
		c-1.7-2.8-3.9-7.5-5.5-10.9c-0.4-0.7-1-1.3-1.6-1.3c-0.4-0.1-1.2-0.1-1.6-0.1c-0.1,0-0.4,0.2-0.4,0.3c-0.6,3.5-1.1,7.3-1.5,10.2
		c-0.2,1.8,0.3,2.5,1.5,2.8c0.9,0.3,2,0.4,3.1,0.6c0.2,0.3-0.1,1.6-0.3,1.8c-1.9,0-4.6-0.2-8.5-0.2c-4.4,0.1-6.8,0.2-8.3,0.2
		c-0.2-0.3-0.1-1.6,0.2-1.8c0.8-0.1,2.4-0.3,3-0.5c1.4-0.3,2-0.9,2.4-2.9c1.2-5.7,3.7-21.7,4.1-25.2c0.2-1.4-0.2-2.2-1.3-2.4
		c-0.7-0.2-2-0.5-3.2-0.6C5.3,66.4,5.5,64.9,5.7,64.8z M18.9,67.2c-0.3,0-1.2,0-1.4,0.2c-0.3,0.1-0.5,0.5-0.6,0.8
		c-0.6,3.3-1.6,9.4-2.2,13.6c-0.1,0.3,0.1,0.5,0.3,0.5c2.5,0.1,4.6-0.4,5.9-0.9c2.6-1.2,4.4-3.3,4.4-7.4
		C25.2,69.8,22.9,67.2,18.9,67.2z"/>
	<path d="M38.8,97.6c1.1-0.3,1.7-1,2.1-3c0.9-4,3.7-21.3,4-24.7c0.1-1.7,0-2.4-1.2-2.7c-0.7-0.2-2-0.4-3.2-0.5
		c-0.2-0.3,0.1-1.7,0.3-1.9c1.7,0,5.4,0.2,8.3,0.2h11.2c2.2,0,5.8-0.1,6.9-0.3c0.1,0,0.2,0.3,0.2,0.4c-0.7,1.7-1.5,5.3-2,8.4
		c-0.3,0.3-1.8,0.3-2.1,0.1c-0.1-1.5-0.2-3.2-0.5-4.2c-0.3-1.3-1-1.7-2.3-1.8c-1.6-0.1-6.4-0.2-7.9-0.1c-0.3,0.1-0.6,0.5-0.7,0.8
		c-0.6,3-1.4,8.2-2,12.2c0,0.2,0.1,0.3,0.3,0.3c2.2,0,5.2,0,7-0.1c1.2-0.1,2-0.7,2.5-1.8c0.3-0.6,0.6-1.4,1-2.3
		c0.2-0.2,1.8-0.2,2.1,0.1c-0.2,1-0.9,3.9-1.2,5.6c-0.3,2-0.6,4.3-0.9,5.9c-0.2,0.2-1.7,0.2-2,0c0-1-0.1-2.1-0.2-2.8
		c-0.2-1-0.7-1.6-1.7-1.7c-1.2-0.2-5.1-0.2-7-0.2c-0.2,0-0.5,0.2-0.5,0.5c-0.6,3.6-1.3,8.5-1.7,11.3c-0.2,1.1,0.3,1.7,0.9,1.8
		c1.3,0.3,5.4,0.3,8.4,0.3c1.8,0,3.1-0.5,4.3-1.8c1.2-1.3,2.2-2.7,3.6-4.9c0.3-0.1,1.7,0.4,1.8,0.8c-0.5,1.8-2,5.8-3.3,7.7
		c-0.4,0.7-0.9,0.8-2.2,0.9c-4.6,0-8.6-0.2-17.3-0.2c-4.1,0-7.2,0.2-9.1,0.2c-0.2-0.2-0.1-1.7,0.1-1.9C36.8,98,37.9,97.8,38.8,97.6z
		"/>
	<path d="M70.4,64.8c1.8,0,5.2,0.2,7.9,0.2c3.8,0,6.6-0.2,7.7-0.2c0.2,0.2,0.1,1.7-0.2,2c-1,0.2-2.1,0.3-2.7,0.6c-0.9,0.3-1,1-1,1.8
		c0.5,3.9,2.8,19.2,3.5,23.2c0.1,0,0.2,0.1,0.3,0c2.1-3.4,10-17.8,11.7-21.7c0.8-1.7,0.9-2.9-0.7-3.3c-0.9-0.2-1.8-0.4-3.2-0.6
		c-0.2-0.4,0-1.6,0.3-1.8c0.9,0,3.8,0.2,7.1,0.2c3.6,0,5.3-0.2,6.5-0.2c0.1,0.3,0.1,1.7-0.2,1.9c-1.2,0.2-2.2,0.4-3,0.8
		c-1.8,0.7-2.5,1.7-4.5,4.9c-2.5,4.1-7.4,13-11.3,19.8c-1.9,3.3-3.5,6.3-4.4,8.1c-0.3,0-1.2-0.1-2.3-0.1c-1.1,0-1.8,0.1-2.2,0.1
		l-1-7.4c-1.2-7.8-2.4-15.8-3.1-20.4c-0.7-4.3-1.3-4.9-3-5.3c-0.7-0.2-1.5-0.3-2.5-0.5C69.9,66.4,70.1,64.9,70.4,64.8z"/>
	<path d="M105.9,97.6c1.2-0.3,1.7-1,2.1-3c0.9-4,3.7-21.3,4-24.7c0.1-1.7,0-2.4-1.2-2.7c-0.7-0.2-2-0.4-3.2-0.5
		c-0.2-0.3,0.1-1.7,0.3-1.9c1.7,0,5.4,0.2,8.3,0.2h11.2c2.2,0,5.8-0.1,6.9-0.3c0.1,0,0.2,0.3,0.2,0.4c-0.7,1.7-1.5,5.3-2,8.4
		c-0.3,0.3-1.8,0.3-2.1,0.1c-0.1-1.5-0.2-3.2-0.5-4.2c-0.3-1.3-1-1.7-2.3-1.8c-1.6-0.1-6.4-0.2-7.9-0.1c-0.3,0.1-0.6,0.5-0.7,0.8
		c-0.6,3-1.4,8.2-2,12.2c0,0.2,0.1,0.3,0.3,0.3c2.2,0,5.2,0,7-0.1c1.2-0.1,2-0.7,2.5-1.8c0.3-0.6,0.6-1.4,1-2.3
		c0.2-0.2,1.8-0.2,2.1,0.1c-0.2,1-0.9,3.9-1.2,5.6c-0.3,2-0.6,4.3-0.9,5.9c-0.2,0.2-1.7,0.2-2,0c0-1-0.1-2.1-0.2-2.8
		c-0.2-1-0.7-1.6-1.7-1.7c-1.2-0.2-5.1-0.2-7-0.2c-0.2,0-0.5,0.2-0.5,0.5c-0.6,3.6-1.3,8.5-1.7,11.3c-0.2,1.1,0.3,1.7,0.9,1.8
		c1.3,0.3,5.4,0.3,8.4,0.3c1.8,0,3.1-0.5,4.3-1.8c1.2-1.3,2.2-2.7,3.6-4.9c0.3-0.1,1.7,0.4,1.8,0.8c-0.5,1.8-2,5.8-3.3,7.7
		c-0.4,0.7-0.9,0.8-2.2,0.9c-4.6,0-8.6-0.2-17.3-0.2c-4.1,0-7.2,0.2-9.1,0.2c-0.2-0.2-0.1-1.7,0.1-1.9C103.9,98,105,97.8,105.9,97.6
		z"/>
	<path d="M140.1,64.8c2.6,0,6.3,0.2,9,0.2c0.9,0,1.9,0,2.4-0.1c0.3,0.7,0.6,1.6,1.6,3.2c3.3,5.7,11.2,19.3,13.7,23.4
		c0.1,0.1,0.2,0,0.2-0.1c1.2-6.5,2.8-17.5,3.1-21c0.1-1.7-0.2-2.8-2-3.2c-1-0.2-2.3-0.4-3.6-0.6c-0.2-0.3,0-1.7,0.3-1.8
		c1.4,0,3.6,0.2,7.6,0.2c3.3,0,5.2-0.2,6.4-0.2c0.2,0.2,0,1.7-0.3,1.8c-0.9,0.2-1.6,0.3-2.3,0.5c-1.7,0.5-2.4,1.3-2.8,3.4
		c-1.1,4.8-2.6,14-3.9,21.9c-0.4,2.5-0.8,5.8-1.1,7.9c-0.4,0-1.2-0.1-2.6-0.1c-1.3,0-2,0.1-2.5,0.1c-2.8-5.3-12.5-22.8-15.6-27.9
		c-0.1-0.1-0.2,0.1-0.2,0.1c-0.9,5.1-3,18.8-3.3,21.5c-0.2,2.4,0.3,3.2,1.9,3.6c0.9,0.2,2,0.5,3.4,0.6c0.2,0.2,0,1.6-0.2,1.9
		c-1.9,0-4.3-0.2-7.2-0.2c-2.4,0-5.2,0.2-7.2,0.2c-0.1-0.4-0.1-1.6,0.2-1.8c1.3-0.2,2.2-0.3,3.2-0.6c1.6-0.4,2.2-1.4,2.7-3.4
		c0.7-3.1,3-15.1,4.3-23.4c0.1-1-0.2-2.9-1.5-3.4c-0.9-0.4-2.1-0.6-3.9-0.9C139.7,66.2,139.9,65,140.1,64.8z"/>
	<path d="M208.8,98.6c-2,0.6-7.6,2.2-12.5,2.2c-11.3,0-16.9-5.3-16.9-15.5c0-8.6,4.9-16.4,12.6-19.6c3.3-1.3,6.2-1.9,10.7-1.9
		c2,0,4.8,0.3,6.5,0.6c1.8,0.3,3.3,0.6,4.3,0.6c-0.9,2.4-1.8,6.4-2.2,9.3c-0.2,0.3-1.8,0.3-2,0.1c0.1-4.3-0.6-5.9-1.9-6.8
		c-1.6-1.2-3.8-1.6-6.6-1.6c-7.5,0-13.7,8-13.7,19.4c0,7.7,3.7,13.1,10.5,13.1c0.9,0,2-0.2,2.5-0.6c0.7-0.4,1-1.3,1.1-1.7
		c0.5-1.6,0.9-4.8,1.2-6.6c0.2-2,0.1-2.8-1.4-3.2c-0.9-0.3-2-0.4-3.6-0.6c-0.2-0.4,0.2-1.7,0.3-1.9c1.5,0,3.5,0.2,8.5,0.2
		c4.9,0,6.2-0.2,7.4-0.2c0.2,0.3-0.1,1.7-0.3,2c-0.7,0.2-1.3,0.2-1.8,0.4c-1.2,0.3-1.6,0.7-2.1,3.3c-0.3,1.2-0.8,4.7-1,6
		c-0.1,0.9,0.1,1.2,0.9,1.7C209.3,97.5,209,98.5,208.8,98.6z"/>
	<path d="M218.1,97.6c1.1-0.3,1.7-1,2.1-3c0.9-4,3.7-21.3,4-24.7c0.1-1.7,0-2.4-1.2-2.7c-0.7-0.2-2-0.4-3.2-0.5
		c-0.2-0.3,0.1-1.7,0.3-1.9c1.7,0,5.4,0.2,8.3,0.2h11.2c2.2,0,5.8-0.1,6.9-0.3c0.1,0,0.2,0.3,0.2,0.4c-0.7,1.7-1.5,5.3-2,8.4
		c-0.3,0.3-1.8,0.3-2.1,0.1c-0.1-1.5-0.2-3.2-0.5-4.2c-0.3-1.3-1-1.7-2.3-1.8c-1.6-0.1-6.4-0.2-7.9-0.1c-0.3,0.1-0.6,0.5-0.7,0.8
		c-0.6,3-1.4,8.2-2,12.2c0,0.2,0.1,0.3,0.3,0.3c2.2,0,5.2,0,7-0.1c1.2-0.1,2-0.7,2.5-1.8c0.3-0.6,0.6-1.4,1-2.3
		c0.2-0.2,1.8-0.2,2.1,0.1c-0.2,1-0.9,3.9-1.2,5.6c-0.3,2-0.6,4.3-0.9,5.9c-0.2,0.2-1.7,0.2-2,0c0-1-0.1-2.1-0.2-2.8
		c-0.2-1-0.7-1.6-1.7-1.7c-1.2-0.2-5.1-0.2-7-0.2c-0.2,0-0.5,0.2-0.5,0.5c-0.6,3.6-1.3,8.5-1.7,11.3c-0.2,1.1,0.3,1.7,0.9,1.8
		c1.3,0.3,5.4,0.3,8.4,0.3c1.8,0,3.1-0.5,4.3-1.8c1.2-1.3,2.2-2.7,3.6-4.9c0.3-0.1,1.7,0.4,1.8,0.8c-0.5,1.8-2,5.8-3.3,7.7
		c-0.4,0.7-0.9,0.8-2.2,0.9c-4.6,0-8.6-0.2-17.3-0.2c-4.1,0-7.2,0.2-9.1,0.2c-0.2-0.2-0.1-1.7,0.1-1.9
		C216.1,98,217.2,97.8,218.1,97.6z"/>
</g>
</svg>
