<svg id="Layer_1" data-name="Layer 1" xmlns="http://www.w3.org/2000/svg" viewBox="0 0 248.91 232.37"><defs><style>.cls-1{fill:#cf0a2c;}.cls-2{fill:#231f20;}</style></defs><title>lr-logo</title><path d="M88.69,128.91l8.86-8.51c-0.15.14-21.22-19.16-23.3-20.66-17.71-12.8-43-15.15-60.61-.48-18.31,15.3-17.68,47-1.12,63.24,12.17,12,33.23,12.78,51,7.45-3.16-1.47-10.82-8.78-10.82-8.78-10.08.74-15,.65-18.94-0.61A30.08,30.08,0,0,1,16.25,146.3C1.26,117.82,37,91.55,62.31,106.89,65.33,108.72,88.68,128.92,88.69,128.91Z"/><path d="M136,149.81l-8.93-8.39,42.38-38.24s27.77-25.61,59.64-7.58c31,17.55,22,66.6-9.57,76.55-20.93,6.6-34-1.94-34-1.94l10.25-8.65s26,9.55,37.55-19.53-14-41.52-31.54-40S153.2,134.11,136,149.81Z"/><path d="M165.18,100.66l12.34-9.35s-22.29-13.4-49.13,6.89l8.61,9.32S151.1,97,165.18,100.66Z"/><path class="cls-1" d="M182.22,115.28l11.52-6s20.51,26.24-5.54,51.76-55.57,9-63.8,2.13-22.16-18.5-22.16-18.5l10.15-9.8,20.86,19.41s14.7,14.82,36.88,5.17C191.32,150.16,190.42,125.48,182.22,115.28Z"/><path d="M149.24,143.44l8.88-8.63,15.75,14.44a16.67,16.67,0,0,1-10.1,7.18Z"/><path d="M84.33,155.45s-5.53-.62-9.52-6.73l36.83-34.25,8.65,7.62Z"/><path class="cls-1" d="M108.43,155.92l8.73,9s-21.85,18.81-52.84-.46c-27.93-17.36-18.06-50.92-10.62-54.64l9.92,6s-13.89,25.58,10.53,41.49C93,169.55,108.43,155.92,108.43,155.92Z"/><path d="M73.87,92.59l11.21,8.89s15.13-2.7,27.62,7.67a267.8,267.8,0,0,1,20.67,18.93l8.77-8L123.6,101.45S105.23,80.36,73.87,92.59Z"/><polygon class="cls-1" points="126.14 29.9 157.36 80.48 171.98 79.46 126.12 0 80.02 80.85 95.98 81.34 126.14 29.9"/><polygon class="cls-2" points="248.91 232.37 223.76 188.8 203.18 183.84 219.83 214.76 27.67 217.29 45.22 184.49 26.09 188.26 0.62 232.37 248.91 232.37"/></svg>