<svg id="Layer_1" data-name="Layer 1" xmlns="http://www.w3.org/2000/svg" viewBox="0 0 499.05 132.1"><defs><style>.cls-1{fill:#cf0a2c;}.cls-2{fill:#231f20;}</style></defs><title>lr-logo</title><path d="M408.92,72.52l5-4.78C413.82,67.81,402,57,400.8,56.11c-10-7.2-24.22-8.52-34.1-.27-10.3,8.6-9.94,26.41-.63,35.57,6.85,6.73,18.69,7.19,28.68,4.19-1.77-.83-6.09-4.94-6.09-4.94-5.67.42-8.43,0.37-10.66-.35a16.92,16.92,0,0,1-9.84-8c-8.43-16,11.68-30.8,25.91-22.17C395.78,61.16,408.92,72.52,408.92,72.52Z"/><path d="M435.53,84.27l-5-4.72L454.34,58S470,43.64,487.89,53.78c17.45,9.87,12.37,37.47-5.38,43.06-11.77,3.71-19.12-1.09-19.12-1.09l5.77-4.87s14.63,5.37,21.12-11-7.88-23.36-17.74-22.53S445.21,75.44,435.53,84.27Z"/><path d="M452,56.63l6.94-5.26s-12.54-7.54-27.64,3.87l4.84,5.24S444,54.55,452,56.63Z"/><path class="cls-1" d="M461.53,64.85l6.48-3.4s11.54,14.76-3.12,29.11-31.26,5.08-35.89,1.2-12.47-10.41-12.47-10.41l5.71-5.51L434,86.76s8.27,8.34,20.74,2.91C466.66,84.47,466.15,70.59,461.53,64.85Z"/><path d="M443,80.69l5-4.85L456.84,84a9.38,9.38,0,0,1-5.68,4Z"/><path d="M406.47,87.45a8.09,8.09,0,0,1-5.36-3.79l20.72-19.27,4.87,4.29Z"/><path class="cls-1" d="M420,87.71l4.91,5.05s-12.29,10.58-29.73-.26c-15.71-9.77-10.16-28.64-6-30.73l5.58,3.36S387,79.52,400.75,88.47A16.07,16.07,0,0,0,420,87.71Z"/><path d="M400.58,52.08l6.3,5a20.65,20.65,0,0,1,15.54,4.32,150.65,150.65,0,0,1,11.63,10.65L439,67.57l-10.43-10.5S418.23,45.21,400.58,52.08Z"/><polygon class="cls-1" points="429.99 16.82 447.55 45.27 455.78 44.7 429.98 0 404.05 45.48 413.03 45.76 429.99 16.82"/><polygon class="cls-2" points="499.05 130.72 484.9 106.21 473.33 103.42 482.69 120.81 374.6 122.23 384.47 103.78 373.71 105.9 359.38 130.72 499.05 130.72"/><path d="M16.41,8.94c3.66,0,7,.3,13.77.3,6.14,0,11.09-.3,14.16-0.4a5.07,5.07,0,0,1-.4,3.17,48.76,48.76,0,0,0-5.35.89c-2.38.69-2.87,2.38-3.37,4.36-1.09,5.65-6.54,40.11-6.93,44.37a2.66,2.66,0,0,0,1.49,3,126.49,126.49,0,0,0,14.56.49c4.16-.1,7.82-3.47,14-14.46a4.54,4.54,0,0,1,3.07,1.49c-0.79,3-4.36,12.18-7.13,15.75-0.79,1.09-2.38,1.88-4.65,1.88-7.63,0-21.89-.4-28.72-0.4-7.72,0-13.07.4-15,.4-0.2-.69-0.1-3,0.4-3.27a45.28,45.28,0,0,0,6.34-1.09c2.08-.59,3-1.78,3.57-4.06,1.68-7.72,6.54-37.63,7.13-44,0.3-2.67,0-3.76-2.38-4.36a38.67,38.67,0,0,0-5.15-.89C15.52,11.61,15.91,9.24,16.41,8.94Z"/><path d="M67.51,46.37c0-9.51,3.27-20.8,11.69-28.52a32.33,32.33,0,0,1,23.67-10.4c15.75,0,23.57,10.5,23.77,24.86,0.1,9.51-2.77,19.31-8.62,26.24A33.37,33.37,0,0,1,91.58,71.13C75.23,71.13,67.51,61,67.51,46.37ZM102.57,63.9c7.82-6.44,11.29-20.7,11.29-33.18-0.1-11.69-4.16-19.41-13.37-19.41-13.37,0-20.2,20.5-20.2,36.35,0,12.28,4.85,19.41,13.67,19.41A13.57,13.57,0,0,0,102.57,63.9Z"/><path d="M132.48,8.94c3.07,0,8.91.3,13.67,0.3,6.54,0,11.39-.3,13.17-0.4a5.35,5.35,0,0,1-.3,3.47,28.43,28.43,0,0,0-4.66,1c-1.48.49-1.78,1.68-1.68,3.07,0.79,6.73,4.85,33,6,39.91a0.84,0.84,0,0,0,.5,0c3.57-5.84,17.13-30.7,20.2-37.34,1.39-3,1.48-5.05-1.19-5.74-1.58-.4-3.17-0.69-5.45-1.09a4.29,4.29,0,0,1,.5-3.17c1.49,0,6.54.3,12.28,0.3,6.24,0,9.11-.4,11.19-0.4,0.2,0.49.1,2.87-.4,3.27a20.22,20.22,0,0,0-5.15,1.39c-3.17,1.19-4.26,3-7.73,8.52-4.36,7-12.68,22.38-19.41,34.07-3.27,5.65-6,10.89-7.63,14-0.59,0-2.08-.1-4-0.1s-3.17.1-3.86,0.1l-1.78-12.78c-2-13.37-4.06-27.14-5.35-35.06-1.19-7.33-2.18-8.42-5.15-9.21a34.86,34.86,0,0,0-4.36-.79C131.59,11.61,132,9.14,132.48,8.94Z"/><path d="M193.68,65.39c2-.5,2.87-1.78,3.66-5.15,1.49-6.83,6.34-36.74,6.93-42.59,0.2-2.87,0-4.06-2.08-4.65a31.09,31.09,0,0,0-5.45-.89,5.27,5.27,0,0,1,.59-3.27c3,0,9.31.4,14.26,0.4h19.31c3.76,0,9.9-.1,11.88-0.5a1.13,1.13,0,0,1,.3.69c-1.19,2.87-2.57,9.11-3.47,14.46-0.5.5-3.17,0.5-3.57,0.1a35.76,35.76,0,0,0-.79-7.23c-0.5-2.18-1.68-2.87-4-3.07a124.31,124.31,0,0,0-13.57-.1A1.87,1.87,0,0,0,216.56,15c-1,5.15-2.38,14.06-3.47,21a0.55,0.55,0,0,0,.5.59c3.76,0,8.91,0,12.08-.1a4.65,4.65,0,0,0,4.26-3.17c0.5-1,1.09-2.48,1.68-4,0.3-.4,3.17-0.3,3.57.1-0.4,1.78-1.49,6.64-2,9.71-0.59,3.37-1.09,7.33-1.48,10.2-0.4.4-3,.3-3.47,0a32,32,0,0,0-.4-4.85,3,3,0,0,0-3-2.87c-2.08-.3-8.81-0.4-12-0.4a0.94,0.94,0,0,0-.79.79c-1,6.14-2.18,14.66-2.87,19.41-0.3,1.88.59,2.87,1.49,3.17,2.18,0.49,9.31.49,14.46,0.49A9.14,9.14,0,0,0,232.6,62a47.68,47.68,0,0,0,6.14-8.52c0.59-.2,2.87.69,3.17,1.39-0.79,3.07-3.47,10-5.65,13.27-0.69,1.19-1.58,1.39-3.86,1.49-7.92,0-14.86-.3-29.81-0.3-7,0-12.38.3-15.65,0.3-0.4-.4-0.2-2.87.2-3.27A44.34,44.34,0,0,0,193.68,65.39Z"/><path d="M282,8.85c4.5,0,10.67.29,15.28,0.29,1.57,0,3.23,0,4.11-.1a30.35,30.35,0,0,0,2.74,5.48c5.58,9.69,19.1,32.9,23.4,39.76a0.19,0.19,0,0,0,.29-0.1c2-11.07,4.8-29.77,5.29-35.74,0.2-2.84-.39-4.7-3.43-5.39-1.76-.39-3.92-0.69-6.17-1.08-0.29-.49,0-2.94.49-3.13,2.45,0,6.17.29,12.93,0.29,5.68,0,8.91-.29,10.87-0.29,0.29,0.39,0,2.84-.49,3.13a38.72,38.72,0,0,0-3.92.88c-2.84.78-4.11,2.15-4.8,5.78-1.86,8.23-4.41,23.89-6.56,37.21-0.69,4.21-1.37,9.89-1.86,13.42-0.69,0-2.06-.2-4.5-0.2a33.3,33.3,0,0,0-4.21.2c-4.8-9.11-21.35-38.87-26.64-47.49-0.2-.1-0.29.1-0.39,0.2-1.57,8.72-5.09,31.92-5.68,36.52-0.39,4,.49,5.39,3.23,6.17a41.18,41.18,0,0,0,5.78,1.08c0.39,0.29,0,2.64-.39,3.23-3.23,0-7.25-.39-12.24-0.39-4.11,0-8.91.39-12.34,0.39-0.2-.69-0.1-2.74.29-3.13a54.49,54.49,0,0,0,5.48-1.08c2.74-.69,3.82-2.45,4.6-5.78,1.27-5.29,5.09-25.66,7.34-39.76,0.2-1.76-.39-4.9-2.55-5.78A25.28,25.28,0,0,0,281.4,12,5.31,5.31,0,0,1,282,8.85Z"/><path d="M276.25,8.67c-5.78,5.09-8.52,9.6-8.52,13.71a11.31,11.31,0,0,0,2,5.88c-0.49,1-6.37,5.39-8.23,5.48a2.06,2.06,0,0,1-1.37-.2,9.75,9.75,0,0,1-1.18-5.09c0-7.15,7.74-16.94,14.3-20.86A7.09,7.09,0,0,1,276.25,8.67Z"/><path d="M7.55,83.94c1.3,0,6.67.31,10.51,0.31,6.29-.08,9.28-0.15,12-0.15,8.74,0,12.88,4.68,12.88,10.74,0,6.83-5.06,11-11.12,13a0.51,0.51,0,0,0-.23.54,106.82,106.82,0,0,0,9.36,16.41c2,2.76,3.3,3.37,7.21,3.83a3.69,3.69,0,0,1-.46,2.53c-4,.15-11.12,0-13.42-1.3a10.09,10.09,0,0,1-3.3-3.53,159.63,159.63,0,0,1-7.29-14.49,2.85,2.85,0,0,0-2.07-1.76,19.42,19.42,0,0,0-2.15-.08,0.81,0.81,0,0,0-.54.46c-0.77,4.68-1.46,9.74-2,13.57-0.31,2.38.46,3.37,2,3.76a28.56,28.56,0,0,0,4.14.77,3.49,3.49,0,0,1-.46,2.45c-2.53,0-6.13-.23-11.35-0.23-5.91.08-9,.23-11.12,0.23a3.84,3.84,0,0,1,.23-2.45A32.21,32.21,0,0,0,4.41,128c1.84-.38,2.68-1.23,3.22-3.83,1.61-7.59,5-28.91,5.52-33.59,0.23-1.92-.31-2.91-1.69-3.22a22.31,22.31,0,0,0-4.29-.84A5.34,5.34,0,0,1,7.55,83.94Zm17.64,3.22a5.27,5.27,0,0,0-1.92.23,1.43,1.43,0,0,0-.77,1.07c-0.84,4.37-2.15,12.58-3,18.17a0.46,0.46,0,0,0,.38.61,21,21,0,0,0,7.9-1.23c3.45-1.53,5.83-4.37,5.83-9.89S30.55,87.16,25.19,87.16Z"/><path d="M51.72,127.73c1.53-.38,2.22-1.38,2.84-4,1.15-5.29,4.91-28.45,5.37-33,0.15-2.22,0-3.14-1.61-3.6a24.08,24.08,0,0,0-4.22-.69,4.08,4.08,0,0,1,.46-2.53c2.3,0,7.21.31,11,.31h15a76.75,76.75,0,0,0,9.2-.38,0.87,0.87,0,0,1,.23.54,65.09,65.09,0,0,0-2.68,11.2,3.82,3.82,0,0,1-2.76.08,27.69,27.69,0,0,0-.61-5.6c-0.38-1.69-1.3-2.22-3.07-2.38a96.26,96.26,0,0,0-10.51-.08,1.45,1.45,0,0,0-.92,1.07c-0.77,4-1.84,10.89-2.68,16.26a0.43,0.43,0,0,0,.38.46c2.91,0,6.9,0,9.36-.08a3.6,3.6,0,0,0,3.3-2.45c0.38-.77.84-1.92,1.3-3.07a4.27,4.27,0,0,1,2.76.08c-0.31,1.38-1.15,5.14-1.53,7.52-0.46,2.61-.84,5.67-1.15,7.9a4.57,4.57,0,0,1-2.68,0,24.76,24.76,0,0,0-.31-3.76,2.35,2.35,0,0,0-2.3-2.22c-1.61-.23-6.83-0.31-9.28-0.31a0.73,0.73,0,0,0-.61.61c-0.77,4.75-1.69,11.35-2.22,15a2,2,0,0,0,1.15,2.45c1.69,0.38,7.21.38,11.2,0.38a7.07,7.07,0,0,0,5.75-2.38,36.92,36.92,0,0,0,4.75-6.59,3.44,3.44,0,0,1,2.45,1.07,44.91,44.91,0,0,1-4.37,10.28c-0.54.92-1.23,1.07-3,1.15-6.14,0-11.5-.23-23.08-0.23-5.44,0-9.59.23-12.12,0.23a3.62,3.62,0,0,1,.15-2.53A34.34,34.34,0,0,0,51.72,127.73Z"/><path d="M93.82,84c2.38,0,6.9.23,10.58,0.23,5.06,0,8.82-.23,10.2-0.31a4.14,4.14,0,0,1-.23,2.68,22,22,0,0,0-3.61.77,2,2,0,0,0-1.3,2.38c0.61,5.21,3.76,25.54,4.68,30.9a0.65,0.65,0,0,0,.38,0c2.76-4.52,13.27-23.77,15.64-28.91,1.07-2.3,1.15-3.91-.92-4.45C128,87,126.79,86.77,125,86.47a3.32,3.32,0,0,1,.38-2.45c1.15,0,5.06.23,9.51,0.23,4.83,0,7.05-.31,8.67-0.31a4.1,4.1,0,0,1-.31,2.53,15.66,15.66,0,0,0-4,1.07c-2.45.92-3.3,2.3-6,6.59-3.37,5.44-9.82,17.33-15,26.38-2.53,4.37-4.68,8.44-5.9,10.81-0.46,0-1.61-.08-3.07-0.08s-2.45.08-3,.08l-1.38-9.89c-1.53-10.35-3.14-21-4.14-27.15-0.92-5.67-1.69-6.52-4-7.13a27,27,0,0,0-3.37-.61C93.13,86.08,93.44,84.17,93.82,84Z"/><path d="M141.21,127.73c1.53-.38,2.22-1.38,2.84-4,1.15-5.29,4.91-28.45,5.37-33,0.15-2.22,0-3.14-1.61-3.6a24.08,24.08,0,0,0-4.22-.69,4.08,4.08,0,0,1,.46-2.53c2.3,0,7.21.31,11,.31h15a76.75,76.75,0,0,0,9.2-.38,0.87,0.87,0,0,1,.23.54,65.09,65.09,0,0,0-2.68,11.2,3.82,3.82,0,0,1-2.76.08,27.69,27.69,0,0,0-.61-5.6c-0.38-1.69-1.3-2.22-3.07-2.38a96.26,96.26,0,0,0-10.51-.08,1.45,1.45,0,0,0-.92,1.07c-0.77,4-1.84,10.89-2.68,16.26a0.43,0.43,0,0,0,.38.46c2.91,0,6.9,0,9.36-.08a3.6,3.6,0,0,0,3.3-2.45c0.38-.77.84-1.92,1.3-3.07a4.27,4.27,0,0,1,2.76.08c-0.31,1.38-1.15,5.14-1.53,7.52-0.46,2.61-.84,5.67-1.15,7.9a4.57,4.57,0,0,1-2.68,0,24.76,24.76,0,0,0-.31-3.76,2.35,2.35,0,0,0-2.3-2.22c-1.61-.23-6.83-0.31-9.28-0.31a0.73,0.73,0,0,0-.61.61c-0.77,4.75-1.69,11.35-2.22,15a2,2,0,0,0,1.15,2.45c1.69,0.38,7.21.38,11.2,0.38a7.07,7.07,0,0,0,5.75-2.38,36.92,36.92,0,0,0,4.75-6.59,3.44,3.44,0,0,1,2.45,1.07,44.91,44.91,0,0,1-4.37,10.28c-0.54.92-1.23,1.07-3,1.15-6.14,0-11.5-.23-23.08-0.23-5.44,0-9.59.23-12.12,0.23a3.62,3.62,0,0,1,.15-2.53A34.34,34.34,0,0,0,141.21,127.73Z"/><path d="M186.84,84c3.53,0,8.36.23,12,.23,1.23,0,2.53,0,3.22-.08a23.76,23.76,0,0,0,2.15,4.29c4.37,7.59,15,25.77,18.33,31.13a0.15,0.15,0,0,0,.23-0.08c1.53-8.67,3.76-23.31,4.14-28,0.15-2.22-.31-3.68-2.68-4.22-1.38-.31-3.07-0.54-4.83-0.84-0.23-.38,0-2.3.38-2.45,1.92,0,4.83.23,10.12,0.23,4.45,0,7-.23,8.51-0.23a3.44,3.44,0,0,1-.38,2.45,30.32,30.32,0,0,0-3.07.69c-2.22.61-3.22,1.69-3.76,4.52-1.46,6.44-3.45,18.71-5.14,29.14-0.54,3.3-1.07,7.74-1.46,10.51-0.54,0-1.61-.15-3.53-0.15a26.08,26.08,0,0,0-3.3.15C214,124.2,201,100.89,196.88,94.14c-0.15-.08-0.23.08-0.31,0.15-1.23,6.83-4,25-4.45,28.6-0.31,3.14.38,4.22,2.53,4.83a32.25,32.25,0,0,0,4.52.84c0.31,0.23,0,2.07-.31,2.53-2.53,0-5.67-.31-9.59-0.31-3.22,0-7,.31-9.66.31a4.3,4.3,0,0,1,.23-2.45,42.67,42.67,0,0,0,4.29-.84c2.15-.54,3-1.92,3.61-4.52,1-4.14,4-20.09,5.75-31.13,0.15-1.38-.31-3.83-2-4.52a19.8,19.8,0,0,0-5.14-1.15A4.16,4.16,0,0,1,186.84,84Z"/><path d="M278.4,129.11c-2.68.84-10.12,3-16.72,3-15.11,0-22.47-7.06-22.47-20.63,0-11.5,6.52-21.86,16.79-26.07a34.9,34.9,0,0,1,14.26-2.53,59.27,59.27,0,0,1,8.67.84,51.76,51.76,0,0,0,5.75.84,73.59,73.59,0,0,0-3,12.42c-0.31.46-2.38,0.38-2.68,0.08,0.08-5.75-.77-7.9-2.53-9.13-2.15-1.61-5.06-2.15-8.82-2.15-10,0-18.25,10.66-18.25,25.84,0,10.28,5,17.48,14,17.48a6.47,6.47,0,0,0,3.37-.84A3.74,3.74,0,0,0,268.2,126a78.28,78.28,0,0,0,1.53-8.82c0.31-2.61.15-3.76-1.84-4.29a34.4,34.4,0,0,0-4.75-.84,4.42,4.42,0,0,1,.46-2.53c2,0,4.68.31,11.27,0.31s8.21-.23,9.82-0.31a4.52,4.52,0,0,1-.46,2.61c-0.92.23-1.76,0.31-2.45,0.54-1.61.46-2.07,1-2.84,4.45-0.38,1.61-1.07,6.29-1.3,8.05a1.89,1.89,0,0,0,1.23,2.22A2.83,2.83,0,0,1,278.4,129.11Z"/><path d="M290.83,127.73c1.53-.38,2.22-1.38,2.84-4,1.15-5.29,4.91-28.45,5.37-33,0.15-2.22,0-3.14-1.61-3.6a24.08,24.08,0,0,0-4.22-.69,4.08,4.08,0,0,1,.46-2.53c2.3,0,7.21.31,11,.31h15a76.75,76.75,0,0,0,9.2-.38,0.87,0.87,0,0,1,.23.54,65.09,65.09,0,0,0-2.68,11.2,3.82,3.82,0,0,1-2.76.08,27.69,27.69,0,0,0-.61-5.6c-0.38-1.69-1.3-2.22-3.07-2.38a96.26,96.26,0,0,0-10.51-.08,1.45,1.45,0,0,0-.92,1.07c-0.77,4-1.84,10.89-2.68,16.26a0.43,0.43,0,0,0,.38.46c2.91,0,6.9,0,9.36-.08a3.6,3.6,0,0,0,3.3-2.45c0.38-.77.84-1.92,1.3-3.07a4.27,4.27,0,0,1,2.76.08c-0.31,1.38-1.15,5.14-1.53,7.52-0.46,2.61-.84,5.67-1.15,7.9a4.57,4.57,0,0,1-2.68,0,24.76,24.76,0,0,0-.31-3.76,2.35,2.35,0,0,0-2.3-2.22c-1.61-.23-6.83-0.31-9.28-0.31a0.73,0.73,0,0,0-.61.61c-0.77,4.75-1.69,11.35-2.22,15a2,2,0,0,0,1.15,2.45c1.69,0.38,7.21.38,11.2,0.38a7.07,7.07,0,0,0,5.75-2.38,36.92,36.92,0,0,0,4.75-6.59,3.44,3.44,0,0,1,2.45,1.07,44.91,44.91,0,0,1-4.37,10.28c-0.54.92-1.23,1.07-3,1.15-6.14,0-11.5-.23-23.08-0.23-5.44,0-9.59.23-12.12,0.23a3.62,3.62,0,0,1,.15-2.53A34.34,34.34,0,0,0,290.83,127.73Z"/></svg>